<mxfile host="app.diagrams.net" modified="2024-05-06T01:25:35.503Z" agent="Mozilla/5.0 (Windows NT 10.0; Win64; x64) AppleWebKit/537.36 (KHTML, like Gecko) Chrome/121.0.0.0 Safari/537.36 OPR/107.0.0.0" etag="72NHN_gRyFpp_t8jS8Y1" version="24.3.1" type="device">
  <diagram id="C5RBs43oDa-KdzZeNtuy" name="Page-1">
    <mxGraphModel dx="839" dy="446" grid="1" gridSize="10" guides="1" tooltips="1" connect="1" arrows="1" fold="1" page="1" pageScale="1" pageWidth="827" pageHeight="1169" math="0" shadow="0">
      <root>
        <mxCell id="WIyWlLk6GJQsqaUBKTNV-0" />
        <mxCell id="WIyWlLk6GJQsqaUBKTNV-1" parent="WIyWlLk6GJQsqaUBKTNV-0" />
        <mxCell id="D1ETCC43ZdIMRndzTRhl-13" style="edgeStyle=orthogonalEdgeStyle;rounded=0;orthogonalLoop=1;jettySize=auto;html=1;entryX=0.5;entryY=0;entryDx=0;entryDy=0;" edge="1" parent="WIyWlLk6GJQsqaUBKTNV-1" source="D1ETCC43ZdIMRndzTRhl-0" target="D1ETCC43ZdIMRndzTRhl-3">
          <mxGeometry relative="1" as="geometry" />
        </mxCell>
        <mxCell id="D1ETCC43ZdIMRndzTRhl-0" value="como cebar mate" style="ellipse;whiteSpace=wrap;html=1;" vertex="1" parent="WIyWlLk6GJQsqaUBKTNV-1">
          <mxGeometry x="170" y="60" width="100" height="60" as="geometry" />
        </mxCell>
        <mxCell id="D1ETCC43ZdIMRndzTRhl-14" value="" style="edgeStyle=orthogonalEdgeStyle;rounded=0;orthogonalLoop=1;jettySize=auto;html=1;" edge="1" parent="WIyWlLk6GJQsqaUBKTNV-1" source="D1ETCC43ZdIMRndzTRhl-3" target="D1ETCC43ZdIMRndzTRhl-8">
          <mxGeometry relative="1" as="geometry" />
        </mxCell>
        <mxCell id="D1ETCC43ZdIMRndzTRhl-30" style="edgeStyle=orthogonalEdgeStyle;rounded=0;orthogonalLoop=1;jettySize=auto;html=1;entryX=0.5;entryY=0;entryDx=0;entryDy=0;" edge="1" parent="WIyWlLk6GJQsqaUBKTNV-1" source="D1ETCC43ZdIMRndzTRhl-3" target="D1ETCC43ZdIMRndzTRhl-33">
          <mxGeometry relative="1" as="geometry">
            <mxPoint x="620" y="420" as="targetPoint" />
          </mxGeometry>
        </mxCell>
        <mxCell id="D1ETCC43ZdIMRndzTRhl-3" value="&lt;font style=&quot;font-size: 11px;&quot;&gt;Agregar agua caliente&lt;/font&gt;&lt;div style=&quot;font-size: 11px;&quot;&gt;&lt;font style=&quot;font-size: 11px;&quot;&gt;&lt;font style=&quot;font-size: 11px;&quot;&gt;al termo&lt;/font&gt;&lt;br&gt;&lt;/font&gt;&lt;div style=&quot;&quot;&gt;&lt;br&gt;&lt;/div&gt;&lt;/div&gt;" style="shape=parallelogram;perimeter=parallelogramPerimeter;whiteSpace=wrap;html=1;fixedSize=1;" vertex="1" parent="WIyWlLk6GJQsqaUBKTNV-1">
          <mxGeometry x="150" y="180" width="140" height="70" as="geometry" />
        </mxCell>
        <mxCell id="D1ETCC43ZdIMRndzTRhl-15" value="" style="edgeStyle=orthogonalEdgeStyle;rounded=0;orthogonalLoop=1;jettySize=auto;html=1;" edge="1" parent="WIyWlLk6GJQsqaUBKTNV-1" source="D1ETCC43ZdIMRndzTRhl-8" target="D1ETCC43ZdIMRndzTRhl-10">
          <mxGeometry relative="1" as="geometry" />
        </mxCell>
        <mxCell id="D1ETCC43ZdIMRndzTRhl-23" style="edgeStyle=orthogonalEdgeStyle;rounded=0;orthogonalLoop=1;jettySize=auto;html=1;entryX=0;entryY=0.5;entryDx=0;entryDy=0;" edge="1" parent="WIyWlLk6GJQsqaUBKTNV-1" source="D1ETCC43ZdIMRndzTRhl-8" target="D1ETCC43ZdIMRndzTRhl-20">
          <mxGeometry relative="1" as="geometry" />
        </mxCell>
        <mxCell id="D1ETCC43ZdIMRndzTRhl-8" value="&lt;span style=&quot;font-size: 11px;&quot;&gt;mate+cantidad de personas&lt;/span&gt;" style="rounded=0;whiteSpace=wrap;html=1;" vertex="1" parent="WIyWlLk6GJQsqaUBKTNV-1">
          <mxGeometry x="160" y="300" width="120" height="60" as="geometry" />
        </mxCell>
        <mxCell id="D1ETCC43ZdIMRndzTRhl-22" style="edgeStyle=orthogonalEdgeStyle;rounded=0;orthogonalLoop=1;jettySize=auto;html=1;entryX=0.5;entryY=0;entryDx=0;entryDy=0;" edge="1" parent="WIyWlLk6GJQsqaUBKTNV-1" source="D1ETCC43ZdIMRndzTRhl-10" target="D1ETCC43ZdIMRndzTRhl-21">
          <mxGeometry relative="1" as="geometry" />
        </mxCell>
        <mxCell id="D1ETCC43ZdIMRndzTRhl-10" value="int=answer" style="shape=document;whiteSpace=wrap;html=1;boundedLbl=1;" vertex="1" parent="WIyWlLk6GJQsqaUBKTNV-1">
          <mxGeometry x="160" y="400" width="120" height="80" as="geometry" />
        </mxCell>
        <object label="" id="D1ETCC43ZdIMRndzTRhl-25">
          <mxCell style="edgeStyle=orthogonalEdgeStyle;rounded=0;orthogonalLoop=1;jettySize=auto;html=1;entryX=1;entryY=0.5;entryDx=0;entryDy=0;" edge="1" parent="WIyWlLk6GJQsqaUBKTNV-1" source="D1ETCC43ZdIMRndzTRhl-20" target="D1ETCC43ZdIMRndzTRhl-21">
            <mxGeometry relative="1" as="geometry">
              <Array as="points">
                <mxPoint x="425" y="570" />
              </Array>
            </mxGeometry>
          </mxCell>
        </object>
        <mxCell id="D1ETCC43ZdIMRndzTRhl-20" value="Compartir&amp;nbsp;" style="rhombus;whiteSpace=wrap;html=1;" vertex="1" parent="WIyWlLk6GJQsqaUBKTNV-1">
          <mxGeometry x="370" y="395" width="110" height="90" as="geometry" />
        </mxCell>
        <mxCell id="D1ETCC43ZdIMRndzTRhl-21" value="Cebar mate" style="ellipse;whiteSpace=wrap;html=1;" vertex="1" parent="WIyWlLk6GJQsqaUBKTNV-1">
          <mxGeometry x="160" y="530" width="120" height="80" as="geometry" />
        </mxCell>
        <mxCell id="D1ETCC43ZdIMRndzTRhl-28" value="" style="endArrow=classic;html=1;rounded=0;" edge="1" parent="WIyWlLk6GJQsqaUBKTNV-1">
          <mxGeometry relative="1" as="geometry">
            <mxPoint x="390" y="569.5" as="sourcePoint" />
            <mxPoint x="330" y="570" as="targetPoint" />
          </mxGeometry>
        </mxCell>
        <mxCell id="D1ETCC43ZdIMRndzTRhl-29" value="Si" style="edgeLabel;resizable=0;html=1;;align=center;verticalAlign=middle;" connectable="0" vertex="1" parent="D1ETCC43ZdIMRndzTRhl-28">
          <mxGeometry relative="1" as="geometry" />
        </mxCell>
        <mxCell id="D1ETCC43ZdIMRndzTRhl-33" value="cebar mate" style="ellipse;whiteSpace=wrap;html=1;" vertex="1" parent="WIyWlLk6GJQsqaUBKTNV-1">
          <mxGeometry x="560" y="420" width="120" height="80" as="geometry" />
        </mxCell>
        <mxCell id="D1ETCC43ZdIMRndzTRhl-34" value="" style="endArrow=classic;html=1;rounded=0;" edge="1" parent="WIyWlLk6GJQsqaUBKTNV-1">
          <mxGeometry relative="1" as="geometry">
            <mxPoint x="480" y="439.5" as="sourcePoint" />
            <mxPoint x="560" y="440" as="targetPoint" />
            <Array as="points">
              <mxPoint x="560" y="439.5" />
              <mxPoint x="570" y="440" />
            </Array>
          </mxGeometry>
        </mxCell>
        <mxCell id="D1ETCC43ZdIMRndzTRhl-35" value="No" style="edgeLabel;resizable=0;html=1;;align=center;verticalAlign=middle;" connectable="0" vertex="1" parent="D1ETCC43ZdIMRndzTRhl-34">
          <mxGeometry relative="1" as="geometry">
            <mxPoint x="20" y="1" as="offset" />
          </mxGeometry>
        </mxCell>
      </root>
    </mxGraphModel>
  </diagram>
</mxfile>
